<svg height="480pt" viewBox="0 -32 480.00193 480" width="480pt" xmlns="http://www.w3.org/2000/svg"><path d="m181.175781 360h59.542969c3.882812 23.085938 23.871094 39.992188 47.28125 39.992188s43.398438-16.90625 47.28125-39.992188h17.4375c3.882812 23.085938 23.871094 39.992188 47.28125 39.992188s43.398438-16.90625 47.28125-39.992188h24.71875c2.570312 0 4.988281-1.234375 6.492188-3.320312 1.503906-2.085938 1.914062-4.765626 1.101562-7.207032l-24-72c-1.089844-3.269531-4.148438-5.472656-7.59375-5.472656h-16v-29.75l22.054688 5.511719c2.390624.597656 4.925781.0625 6.867187-1.453125s3.078125-3.84375 3.078125-6.308594v-56c0-2.464844-1.136719-4.789062-3.078125-6.304688-1.941406-1.515624-4.476563-2.054687-6.867187-1.453124l-22.054688 5.511718v-5.753906c.191406-8.542969-3.117188-16.792969-9.160156-22.839844-6.042969-6.042968-14.296875-9.351562-22.839844-9.160156h-48v-56h8c4.417969 0 8-3.582031 8-8v-32c0-4.417969-3.582031-8-8-8h-72c-4.417969 0-8 3.582031-8 8v32c0 4.417969 3.582031 8 8 8h8v56h-88v-96h8c4.417969 0 8-3.582031 8-8v-32c0-4.417969-3.582031-8-8-8h-208c-4.417969 0-8 3.582031-8 8v32c0 4.417969 3.582031 8 8 8h8v224h-8c-4.417969 0-8 3.582031-8 8v72c0 4.417969 3.582031 8 8 8h34.824219c14.242187 24.75 40.621093 40 69.175781 40s54.933594-15.25 69.175781-40zm106.824219 24c-17.671875 0-32-14.324219-32-32 0-17.671875 14.328125-32 32-32s32 14.328125 32 32c0 17.675781-14.328125 32-32 32zm112 0c-17.671875 0-32-14.324219-32-32 0-17.671875 14.328125-32 32-32s32 14.328125 32 32c0 17.675781-14.328125 32-32 32zm60.902344-40h-13.597656c-3.882813-23.085938-23.871094-39.992188-47.28125-39.992188-23.410157 0-43.398438 16.90625-47.28125 39.992188h-17.460938c-3.882812-23.085938-23.871094-39.992188-47.28125-39.992188s-43.398438 16.90625-47.28125 39.992188h-52.40625c5.808594-18.417969 4.726562-38.316406-3.039062-56h256.957031zm-12.902344-149.75v35.503906l-16-4v-27.503906zm-152-138.25h56v16h-56zm16 32h24v56h-24zm-8 72h96c4.289062-.148438 8.445312 1.488281 11.476562 4.523438 3.035157 3.035156 4.671876 7.191406 4.523438 11.476562v96h-208v-112zm-288-144h192v16h-192zm16 32h160v224h-16.152344c-15.042968-20.136719-38.710937-32-63.847656-32s-48.804688 11.863281-63.847656 32h-16.152344zm-16 296v-56h22.726562c-7.765624 17.683594-8.847656 37.582031-3.039062 56zm96 40c-35.347656 0-64-28.652344-64-64 0-35.34375 28.652344-64 64-64s64 28.65625 64 64c-.039062 35.332031-28.671875 63.960938-64 64zm0 0"/><path d="m472 400h-464c-4.417969 0-8 3.582031-8 8s3.582031 8 8 8h464c4.417969 0 8-3.582031 8-8s-3.582031-8-8-8zm0 0"/><path d="m56 144h112c4.417969 0 8-3.582031 8-8v-64c0-4.417969-3.582031-8-8-8h-112c-4.417969 0-8 3.582031-8 8v64c0 4.417969 3.582031 8 8 8zm8-64h96v48h-96zm0 0"/><path d="m232 192h160c4.417969 0 8-3.582031 8-8s-3.582031-8-8-8h-160c-4.417969 0-8 3.582031-8 8s3.582031 8 8 8zm0 0"/><path d="m304 352c0 8.835938-7.164062 16-16 16s-16-7.164062-16-16 7.164062-16 16-16 16 7.164062 16 16zm0 0"/><path d="m416 352c0 8.835938-7.164062 16-16 16s-16-7.164062-16-16 7.164062-16 16-16 16 7.164062 16 16zm0 0"/><path d="m112 272c-26.507812 0-48 21.492188-48 48 0 26.511719 21.492188 48 48 48s48-21.488281 48-48c-.027344-26.496094-21.5-47.972656-48-48zm0 80c-17.671875 0-32-14.324219-32-32 0-17.671875 14.328125-32 32-32s32 14.328125 32 32c0 17.675781-14.328125 32-32 32zm0 0"/></svg>